<svg width="34" height="34" viewBox="0 0 34 34" fill="none" xmlns="http://www.w3.org/2000/svg">
<path d="M17 13.8831V28.3331M17 13.8831C17 11.5029 17 10.3133 17.4632 9.40413C17.8707 8.60445 18.5204 7.95406 19.3201 7.5466C20.2292 7.08337 21.4195 7.08337 23.7997 7.08337H27.4831C28.2765 7.08337 28.6734 7.08337 28.9765 7.23778C29.2431 7.3736 29.4592 7.59017 29.5951 7.85673C29.7495 8.15977 29.75 8.55677 29.75 9.35018V21.8168C29.75 22.6103 29.7495 23.0064 29.5951 23.3094C29.4592 23.576 29.2435 23.7933 28.977 23.9291C28.6742 24.0834 28.2781 24.0834 27.4862 24.0834H23.4732C22.1427 24.0834 21.4762 24.0834 20.8723 24.2668C20.3377 24.4291 19.8414 24.695 19.4097 25.0497C18.9222 25.4505 18.5527 26.004 17.8146 27.1111L17 28.3331M17 13.8831C17 11.5029 16.9998 10.3133 16.5365 9.40413C16.1291 8.60445 15.4789 7.95406 14.6792 7.5466C13.7701 7.08337 12.5797 7.08337 10.1994 7.08337H6.51611C5.72271 7.08337 5.3264 7.08337 5.02336 7.23778C4.75679 7.3736 4.54023 7.59017 4.40441 7.85673C4.25 8.15977 4.25 8.55677 4.25 9.35018V21.8168C4.25 22.6103 4.25 23.0064 4.40441 23.3094C4.54023 23.576 4.75679 23.7933 5.02336 23.9291C5.3261 24.0834 5.72193 24.0834 6.51379 24.0834H10.5269C11.8574 24.0834 12.5225 24.0834 13.1264 24.2668C13.661 24.4291 14.1598 24.695 14.5914 25.0497C15.077 25.4488 15.4441 25.9995 16.1762 27.0977L17 28.3331" stroke="#1853F3" stroke-width="3" stroke-linecap="round" stroke-linejoin="round"/>
<path d="M17 13.8831V28.3331M17 13.8831C17 11.5029 17 10.3133 17.4632 9.40413C17.8707 8.60445 18.5204 7.95406 19.3201 7.5466C20.2292 7.08337 21.4195 7.08337 23.7997 7.08337H27.4831C28.2765 7.08337 28.6734 7.08337 28.9765 7.23778C29.2431 7.3736 29.4592 7.59017 29.5951 7.85673C29.7495 8.15977 29.75 8.55677 29.75 9.35018V21.8168C29.75 22.6103 29.7495 23.0064 29.5951 23.3094C29.4592 23.576 29.2435 23.7933 28.977 23.9291C28.6742 24.0834 28.2781 24.0834 27.4862 24.0834H23.4732C22.1427 24.0834 21.4762 24.0834 20.8723 24.2668C20.3377 24.4291 19.8414 24.695 19.4097 25.0497C18.9222 25.4505 18.5527 26.004 17.8146 27.1111L17 28.3331M17 13.8831C17 11.5029 16.9998 10.3133 16.5365 9.40413C16.1291 8.60445 15.4789 7.95406 14.6792 7.5466C13.7701 7.08337 12.5797 7.08337 10.1994 7.08337H6.51611C5.72271 7.08337 5.3264 7.08337 5.02336 7.23778C4.75679 7.3736 4.54023 7.59017 4.40441 7.85673C4.25 8.15977 4.25 8.55677 4.25 9.35018V21.8168C4.25 22.6103 4.25 23.0064 4.40441 23.3094C4.54023 23.576 4.75679 23.7933 5.02336 23.9291C5.3261 24.0834 5.72193 24.0834 6.51379 24.0834H10.5269C11.8574 24.0834 12.5225 24.0834 13.1264 24.2668C13.661 24.4291 14.1598 24.695 14.5914 25.0497C15.077 25.4488 15.4441 25.9995 16.1762 27.0977L17 28.3331" stroke="black" stroke-opacity="0.6" stroke-width="3" stroke-linecap="round" stroke-linejoin="round"/>
</svg>
